<?xml version="1.0" standalone="no"?>
<!DOCTYPE svg PUBLIC "-//W3C//DTD SVG 20010904//EN"
 "http://www.w3.org/TR/2001/REC-SVG-20010904/DTD/svg10.dtd">
<svg version="1.0" xmlns="http://www.w3.org/2000/svg"
 width="103.000000pt" height="95.000000pt" viewBox="0 0 103.000000 95.000000"
 preserveAspectRatio="xMidYMid meet">
<metadata>
Created by potrace 1.13, written by Peter Selinger 2001-2015
</metadata>
<g transform="translate(0.000000,95.000000) scale(0.100000,-0.100000)"
fill="#ffffff" stroke="none">
<path d="M666 917 l-59 -32 -84 -250 c-47 -137 -86 -254 -87 -260 -2 -5 -6
-17 -9 -25 -23 -61 -107 -324 -104 -326 13 -14 83 124 163 324 53 131 120 298
150 372 30 74 59 144 64 155 12 26 30 75 27 75 -1 0 -29 -15 -61 -33z"/>
<path d="M0 510 l0 -400 138 1 c92 0 130 3 117 10 -11 5 -51 22 -90 38 l-70
29 0 322 0 322 70 29 c39 16 79 33 90 38 13 7 -25 10 -117 10 l-138 1 0 -400z"/>
<path d="M845 871 l90 -38 0 -322 0 -323 -70 -29 c-38 -16 -79 -33 -90 -38
-13 -7 25 -10 118 -10 l137 -1 0 400 0 400 -137 0 -138 -1 90 -38z"/>
</g>
</svg>
